<svg width="117" height="22" viewBox="0 0 117 22" fill="none" xmlns="http://www.w3.org/2000/svg">
<path fill-rule="evenodd" clip-rule="evenodd" d="M15.1905 0.523804C16.2881 0.474552 17.3862 0.611635 18.4381 0.929232C19.3739 1.24507 20.2405 1.73724 20.9911 2.37914C21.6641 2.95085 22.211 3.65613 22.5971 4.45028C22.9259 5.19185 23.08 5.99899 23.0476 6.80952V21.4762H16.7619L16.7294 7.9158C16.7274 7.43212 16.6228 6.95437 16.4225 6.51409C16.1928 6.01593 15.8085 5.60517 15.3267 5.34285C14.653 4.93633 13.8821 4.71918 13.0952 4.71428H6.28571V21.4762H0V0.523804H15.1905ZM39.8097 17.2857H48.7145V21.4762H38.2383C34.4868 21.4762 31.9327 20.6633 29.8458 18.8415C27.759 17.0196 26.7145 14.4058 26.7145 11C26.6622 8.98747 27.1506 6.99773 28.1288 5.23812C29.0714 3.62808 30.5026 2.36025 32.2145 1.6186C34.2983 0.80638 36.5275 0.433661 38.7621 0.523834H48.7145V4.71431H39.2859C38.3953 4.67189 37.5026 4.72705 36.6239 4.87879C35.8676 5.0326 35.1885 5.4453 34.7036 6.04583C34.0289 6.85669 33.6174 7.85402 33.524 8.90479H48.1907V13.0953H33.524C33.6817 13.9164 33.961 14.7095 34.3527 15.4482C34.6728 16.0798 35.2205 16.5665 35.8854 16.8101C37.1536 17.2065 38.4836 17.3677 39.8097 17.2857V17.2857ZM85.8943 21.5715L79.619 21.4762V0.52381H85.9048L85.8943 21.5715ZM66.5238 0.52381H51.8571V4.71429H60.2381V21.4762H67.0476V4.71429H75.4286V0.52381H66.5238ZM90.017 11C89.8333 7.87783 91.1371 4.85272 93.5328 2.84219C95.8753 0.947397 99.0869 0 103.168 0C107.264 0 110.484 0.947746 112.829 2.84324C115.225 4.85273 116.529 7.87795 116.345 11C116.527 14.1193 115.223 17.1411 112.829 19.1484C110.486 21.0495 107.266 22 103.168 22C99.089 22 95.8763 21.0491 93.5296 19.1473C91.1377 17.1387 89.8354 14.1181 90.017 11ZM103.168 4.45761C100.863 4.45761 99.2273 5.0366 98.2607 6.19456C97.2247 7.57733 96.7125 9.28257 96.815 11.0073C96.7136 12.7297 97.2316 14.4316 98.2754 15.8054C99.2476 16.9606 100.878 17.5389 103.168 17.5403C105.48 17.5403 107.114 16.9609 108.092 15.8054C109.133 14.4306 109.65 12.7292 109.549 11.0073C109.651 9.28257 109.139 7.57733 108.103 6.19456C107.132 5.03694 105.491 4.45761 103.168 4.45761Z" fill="white"/>
</svg>
